<svg width="14" height="14" viewBox="0 0 14 14" xmlns="http://www.w3.org/2000/svg">
                                <path d="M0.5 3.125H13.5C13.7762 3.125 14 2.90116 14 2.625V1.375C14 1.09884 13.7762 0.875 13.5 0.875H0.5C0.223844 0.875 0 1.09884 0 1.375V2.625C0 2.90116 0.223844 3.125 0.5 3.125ZM0.5 8.125H13.5C13.7762 8.125 14 7.90116 14 7.625V6.375C14 6.09884 13.7762 5.875 13.5 5.875H0.5C0.223844 5.875 0 6.09884 0 6.375V7.625C0 7.90116 0.223844 8.125 0.5 8.125ZM0.5 13.125H13.5C13.7762 13.125 14 12.9012 14 12.625V11.375C14 11.0988 13.7762 10.875 13.5 10.875H0.5C0.223844 10.875 0 11.0988 0 11.375V12.625C0 12.9012 0.223844 13.125 0.5 13.125Z" fill="black"></path>
                            </svg>
