<svg width="20" height="20" viewBox="0 0 20 20" fill="none">
                                <path d="M16.723 4.76758H4.73047V15.9408H16.723V4.76758Z" fill="white"></path>
                                <path d="M9.98138 0C4.46927 0 0 4.46927 0 9.98138C0 15.4935 4.46927 19.9628 9.98138 19.9628C10.8007 19.9628 11.9926 19.9628 13.2961 19.9628L5.10242 11.7691V8.19367H8.19367V5.06518H11.7691L19.9628 13.2588C19.9628 11.9553 19.9628 10.7635 19.9628 9.94413C20 4.46927 15.5307 0 9.98138 0Z" fill="#F7B318"></path>
                                <path d="M11.8066 8.19392H14.8978V11.7693H11.7693V14.8978H8.19392V11.7693H5.06543L13.2591 19.963C16.3503 19.963 19.963 19.963 19.963 19.963C19.963 19.963 19.963 16.3503 19.963 13.2591L11.7693 5.06543V8.19392H11.8066Z" fill="#E5A324"></path>
                                <path d="M16.5889 12.3074V7.76367L3.44175 7.76367V12.3074L16.5889 12.3074Z" fill="white">
                                </path>
                                <path d="M7.70819 16.6055H12.252L12.252 3.45836H7.70819L7.70819 16.6055Z" fill="white">
                                </path>
                            </svg>
