<svg version="1.1" id="Capa_1" xmlns="http://www.w3.org/2000/svg" x="0" y="0" viewBox="0 0 500 54.8" style="enable-background:new 0 0 500 54.8" xml:space="preserve"><style>.st0{fill:#0069a2}</style><path class="st0" d="M111.2 46.2h-31v-3h4.4V10.7h-4.4v-3h30.4v10h-3.7v-5.8H95.1v12.9h4.9v-4.1h3.6v11.2H100v-4.1h-4.9v14.3h12.3v-6.5h3.8zM145.5 46.2H115v-3h4.4V10.7H115v-3h20.1v3h-5.2v31.4h11.8v-6.5h3.8zM197.9 10.7h-3.1v22c0 10.6-6.5 14.3-16.5 14.3-10.9 0-16.5-4.6-16.5-12.7V10.7h-3.6v-3h18.4v3h-4.4v21.8c0 8.4 3.3 10.4 9.5 10.4 6.4 0 8.8-3.4 8.8-10.4V10.8h-4.8V7.7h12.2v3zM211.8 43.2h5.1v3h-13.8v-3h4.4V12.4c0-.1-1.2-1.7-1.2-1.7h-4.4v-3h14.7l18.6 25.6V10.7h-5.8v-3h14.2v3h-4.2v36.1h-6.7l-21-28.7.1 25.1zM267.8 46.2h-20v-3h4.7V10.7h-4.7v-3h20v3H263v32.5h4.8zM295.3 47.2h-6.1L275 10.7h-3.2v-3h19.6v3h-5.7l9.7 25.6 9.9-25.6H301v-3h11.7v3h-3.1zM347.3 46.2h-30.5v-3h3.3V10.7h-3.3v-3h29.9v10H343v-5.8h-12.4v12.9h5.5v-4.1h3.5v11.2h-3.5v-4.1h-5.5v14.3h12.9v-6.5h3.8zM372.6 28.5c10.1-.9 12.1-5.4 12.1-9.8 0-7-4.4-11-14.1-11h-19.4v3h4.9v32.5h-4.9v3h19.4v-3h-4.1V31.1h1.5l8.9 15.1h12.7v-3h-2.8l-5.3-8.6c-2.7-4.3-3.7-5.4-8.9-5.8v-.3zm-6-16.9h.5c5.8 0 6.8 2.3 6.8 7.3s-.8 8.4-7.1 8.4h-.2V11.6zM397.7 46.8h-4V35.6h4v6.2c2.8.8 5.2 1 8.6 1 4.8 0 6.7-1.3 6.7-4.7 0-2.7-2.3-3.9-7.8-6.5-8.5-4.1-11.3-6.8-11.3-13.8 0-7.2 5.4-10.7 12.7-10.7 2.3 0 7.4.8 9.2 2.2V6.8h3.7v10.9h-3.7v-5.6c-2.2-.6-4.6-.7-6.8-.7-4 0-5.9 1.2-5.9 4.1 0 3.5 2.3 4.5 7.2 6.9C417 25.6 422 28.2 422 36c0 7.4-5.7 11-13.4 11-3.4 0-8.2-.7-10.9-2.3v2.1zM434.2 35.5h14l3 7.7h-4.7v3H465v-3h-3.3L447.3 6.7h-6.1L427 43.2h-3.6v3h11.9v-3h-4l2.9-7.7zm12.8-3.3h-11.5c.1 0 5.8-14.9 5.8-14.9l5.7 14.9zM498.2 46.2h-29.3v-3h3.2V10.7h-3.2v-3h17.8v3h-4.1v31.4h11.8v-6.5h3.8zM14.9 33.6c2.3 1.2 3.9 1.5 12 1.9 1.3-.2-2.4-.6-3-.8-2.7-.8-.3-1.2-2.1-1.1-1.7.1-3.9-.1-5.3-.3-1.7-.4-3.4-1-1.6.3zM55.2 24c.1-.1.2-.3.3-.4-.1.1-.2.2-.3.4zM29.1 40c.6.9 3.4 1 4.4.7.8.1.3-.4-.2-.5-.5.1-1-.4-1.1-.4-2.3.5-3.3-.2-3.1.2z"/><path class="st0" d="M74.9 27c-3.6.6-13.3-1.3-17.5.5.6-1.8.9-3.7.9-6.1 0-10.6-8.6-19.3-19.2-19.3A19.23 19.23 0 0 0 21 27.7c-15 1.1-16.6-1.5-16.8-.2.2 3.3 5.1 6.5 7.2 6.2 0 0 2.7 3.4 7.5 3.7 0 0 1.8 1.9 4.4 2 .7.9 2.1 2.2 3.8 1.7 0 0 .4.9 1.6 1.1 0 0-.1.4.4.6-1 0-8 1.3-11 3.7.3 1.3 2.8 2.1 3.5 1.9.6 1.2 2.1 2.4 3.5 2.4 1.4 1.4 3.1 1.6 4.3 1.5 1.3.5 4.3-.5 4.8-2.7.2-.9.8-2.3 2.1-2.4 0 0 .6.1 1 .6-.7.6-.9 2.7.3 3.4 1.1.7 2.4.6 3.5.4.7.7 1.3.2 1.7.4-.1.2.6.7 1.3.4.7-.3.8-.6.9-.8.2-.2.3-.6.2-.7.4-.2.3-.5.3-.7.5.1.9-.6.9-1-.1-.9-.6-1-1.4-1 .9-.7 2.1-.8 3.8-1 1.6-.2 2.5-.6 3.4-1 1-.3 1.8-.3 2.6-.5.6-.1 1-.1 1.3-.2.2.2.9.5 2.8.2 2.1-.3 4.5-.3 4.5-.3 1.2-3.3-1.6-3.8-1.6-3.8-.4-.9-.7-1.6-2.1-1.9-1.3-.3-1.7-.3-1.9-.9-.4-.1-.7 0-1 0 .2-.2.5-.3.9-.5 2.7-.7 3.3-1.5 3.7-2 3.6-.2 4.4-1.1 5.9-2 1.6-.3 2.6-.7 3.6-2.1 5-.2 5.6-5.5 4-5.2zm-30 11.3c-.1-.1-.3-.2-.4-.4.6-.2 1.8-.6 2.4-1.1 1.5-.9 0 .2-.4.7 0 0-.2.4-1.6.8zM30 27.8s-.2-.8.1-.9c.6-.2 1.6-1.2 2.3-1.4 0 0 .5-.5-2.7.7v-.7c.1-.1.6-.4 1-.4.1-.4-.8-.1-1-.3-.1-.2 0-.5 0-1.1 1.4.3 2.4.5 3.8.6.2.2 1.5.9 1 .2v-.1h.8c.1.4.2.5.2.5l.2.2v2.4c-.3.1-.9.5-1.4.8-.5.2-.8.2-1.1.2.8-.5 1.1-1.1 2.1-1.7 0 0-.6-.5-2.8 1.2-.5.4-1.2.5-1.7.5 1-.4 2.2-2 3.2-2.3.2-.2-.5-.6-4 1.6zm-5 .3h-.7c0-.3-.1-.7-.1-.7 1.3 0 1.8-.3 2.4-.6.6-.3 1.1-1 2-1 .1 0 .1.4.1.7-.2.1-.6.2-.8.3-.8.5-.9 1.2-2.9 1.3zM45.3 6.3c1.4.3 2.6.8 3.7 1.5.2.6.1 1.2-.1 1.8-1.2-.9-2.4-1.7-3.8-2.3.5-.2.4-.6.2-1zm-5-1.1c.7.9-.3 2-2.3 2.6-2 .6-3.9.2-4.6-.7-.7-.9 0-1.8 2-2.4 2-.5 4.1-.3 4.9.5zm-11.5 5.3c-.4.3-.2.7-.3 1.1 0 .2-.2.5-.3.8-.2.2-.3.5-.5.7-.2-.2-.6-.4-.8-.6-.2-.1-.3-.3-.4-.5.7-.8 2-1.7 2.8-2.2-.3.3-.4.6-.5.7zm9.8 12c.1-.3.2-.5.4-.8.2-.3.9-.3 1.1-.3.3 0 .5.1.6.1.2 0 .3-.2.5-.4s.5-.1.7-.1c.3 0 .5.2.7.2.2.1.2.1.4.3.1.1.1.4.1.6-1.7.4-3.2.6-4.8.7.2 0 .3-.1.3-.3zm4.1-11.4c-.4.1-.8 0-1 .2-.2.2-.2 1-1.1.6-.5-.7-.7-.4-1.1-.8-.3-.4 0-.8.2-.8.3-.1.2-.3.2-.6-.1-.3-.4-.4-.3-.8.1-.2.1-.6.7-.3.2.1 2 1.4 2.4 1.9.5.3.4.5 0 .6zm-13-4.2c.7-.5 2.1-1.1 2.5-1.1-.2.3-.6.9-.7 1.1-1.3.7-3.8 2.6-5.4 4.6-.2-.7-.1-1.4.1-1.7 1.1-1.4 2.2-2.1 3.5-2.9zM26.1 13c.2.3.6.7 1 1-1.1 1.8-2.2 4-2.7 6-.6-.3-1.3-1.2-1.5-1.9.3-1.4 1.6-3.7 3-5.4.1 0 .2.2.2.3zm-1.3 8.2c.4.3.5.5 1 .8-.4 0-.7.1-1.2.2.1-.3.1-.7.2-1zm-.9-.6c-.3.1-1 .3-.8.4.3-.1.8 0 1.1-.1l-.3 1.5c-.4.1-1.2.4-1.3.8.3-.1.8-.2 1.2-.3 0 .5-.1.9-.1 1.4-.2.1-.6.4-.7.6.2 0 .5-.2.7-.2v.6c0 .2-.1-1.4 0 .5-.1.2-.4.4-.5.5.1 0 .4-.1.5-.1 0 .6.2 1.4.3 1.8-.2-.1-.7-.4-1-.7-.2-.3-.4-.5-.6-.8-.5-2-.3-4.9.3-7.7.2.7.8 1.4 1.2 1.8zm-2.1 4.5s-1.2-4.8.2-8.7c0 .6.1 1.4.2 1.9.1 0-.7 3.7-.4 6.8zm3.6-.1c-.4.2-.7.4-1.2.7v-1.2c.3-.1.7-.3.9-.3 1-.3 1-.7 1.9-.9 0 0-.3-.4-2.3.4-.1 0-.3.2-.5.3 0-.3.1-.9.2-1.2.7-.2.8-.6 1.5-.7.8.4 1.9 1 2.8 1.2 0 .6 0 1.6-.4 1.7-.5.1-1.2.7-1.8 1-.6.4-1.2.9-2.3 1.1-.1-.3-.1-.6-.1-.9.6-.2 1.2-.4 1.6-.6 1-.4 1.3-1.1 2.3-1.4.1-.1-.1-.5-2.6.8zm-.2-4.5c.4-.2 1.4-.3 1.2-.5 0 0-.5 0-1.1.1.7-2 1.3-3.4 2.6-5.1.5.5.3 1 .9 1.2.4.3.3.7.6 1l.3.2c-.3 1.2-.5 2.8-.8 4.9-1.5-.5-2.6-1-3.7-1.8zm5.8-2.4s.7.2.4.9c-.3.7-.1 1 0 1.2.2.2.3.5.4.8.1.3.5.6.7.7.2.1.1.5.1.5l.6.6.2.2c-1.3-.1-2.3-.3-3.4-.5.1-1.1.3-2.7 1-4.4zm2.2 3.5c-.3-.6-.1-.8.1-.8s.8.5.9.7c.1.3.3.4.5.7.1.3.4.6.5.9H34c-.1-.2-.1-.3-.1-.4-.2-.3-.4-.5-.7-1.1zm8 10.1c.9-1 .9-1.3 2.3-2.4 0 0 .2-.8-2.7 1.3-.3.1-.6.3-.7.1.8-.6 1.2-1.7 2.1-2.1 0 0-.3-.5-2.7 1.1-.3.2-.6.2-.8 0 .7-.5 1.2-1.3 2-1.6 0 0-.1-.3-2.4.9-.2.1-.3.2-.7 0 .6-.5 1.2-1.2 1.8-1.5 0 0 0-.3-2.3.5v-.5c.2-.1.5-.4 1-.6 0 0-.2-.3-1 0v-1.5c.2.1.6.5.6.5s.4.2.6 0c.2-.1.8-.4 1.3-.3.4.1 1.1.6 1.2.7.1.1.4.1.5.4.1.3-.1.4 0 .6 0 .2.1.3.7.5s.7.2.9.4c.2.1.5.1.6.1.1 0 .3-.2.4-.3h.6c.4.1.2.5.2.8 0 .6-.6.8-.9 1.3-1.3 1-2.3 2.8-2.6 1.6zm3.6-4.6c-.5 0-.8.1-1.2.3-.5.2-.8 0-.9-.2-.1-.3-.1-.4 0-1s-.7-.4-1.1-.6c-.3-.2 0-.7.2-1 .1-.3-.7-.4-.9-.4-.2 0-.3.8-.8 1-.4.2-.5.1-1-.2-.5-.3-.6-.5-.6-1 1.8-.2 3.2-.5 4.6-.8.4-.1.2.2.6.1.1 0 .2-.1.3-.3.1.2.3.8.3 1.1-.1 0-.4-.1-.6-.2-.2-.1-1.2.2-1.4.3-.1.1.3.2.5.2.2.1.5.3.7.3.2.1.3.5.7.5.1 0 .3 0 .3.2.2.6.4 1.3.6 2-.1-.2-.2-.2-.3-.3zm-.5-5.1v-.8c-.1-.4 1.2-1 1.2-1s.5-.2.9-.4.4-1.4.2-1.9-.3-1-.1-1.3c.2-.3 1 .5 1.5.3.3-.1.3-.4.4-.6.7 1 1.2 2 1.7 3.1-1.6 1.1-3.7 2-5.7 2.5 0 0-.1 0-.1.1zm3.2-8.3h.5c.4 0 1 0 1.1-.5.1-.5-.1-1.5-.1-1.5-.1-.4-.7-.4-.8-.6V11c.3-.3.6-.6.7-1a17 17 0 0 1 5 5.4c-.7 1.3-1.7 2.6-3.2 3.7-.9-1.9-2-3.7-3.2-5.4zm1.2-3.7c-.2.3-.4.6-.8.9-.2-.1-.4-.2-.8-.2-.6.1-.8-.4-.8-.4s.8-.6.5-1c-.4-.3-2.4-.3-2.4-.3-.7-.2-.7.3-.8.6L42 8.3c0-.8.9-.3.9-.7 0-.3-1-.7-.6-.8 2.4.8 4.6 1.9 6.4 3.2zm-7.8-5.7c-.2 0-.9-.4-1.1-.4l.2-.2c1.3.1 2.5.3 3.7.6-.8-.1-1.9-.2-2.8 0zm-15.1 5.8c-.1.3-.3 1.2-.2 1.8-1.4 1.7-2.6 4-3.1 5.7-.2-.3-.4-1-.4-1.5.8-2.2 2.3-4.5 3.7-6zM28 27.7c.5-.2.7-.2.7-.2.1 0 .1.2.2.7-.7.3-2.4.3-3.4.1 1.3-.1 1.9-.3 2.5-.6zm14.1 5.9c-.2-.2-.3-.4-.3-.6 2.5-.6 5-3.3 3.5-1.6-.3.5-.8 1.2-2.1 1.7l-1.1.5zm3.7-1c1.4-1.1 1.3-.7.2.1-.5.3-.8 1.3-3.2 2.2-.2-.1-.3-.3-.3-.6 0 0 2.1-.8 3.3-1.7zm1.7.9c-1.1.9-.7 1.2-2.8 2.1-.6.2-1.3.5-1.3.5-.1-.1-.3-.5-.3-.6 3-.8 4.7-2.7 4.4-2zm-.3 1.7c1-.6-.3.2-.5.8-.9.7-1.5 1-2.6 1.3-.1-.1-.3-.3-.4-.5 1.3-.1 3.3-1.4 3.5-1.6zm5.8-4.5c.4-1.1.7-1.7.6-2.2 0-.2.3-.4-.2-.8s-2.3 1.7-2.9 1.3c-.4-.2-.7.1-1.1 0-.2-.1-.3-.1-.4-.2 2.8-1.4 4.8-3 6.1-4.8-1.4 1.9-3.7 3.3-6.7 4.5-.3-.1-.3.1-.5-.1-.3-.3-1-.5-1.6-.4h-.8l-.4-.6c-.1-.8-.1-1.3-.3-2.2.2-.1.4-.1.4-.1.4 0 .4.3.7.3.2.1.7-.2.7-.4.1-.2-.3-.4-.6-.6-.3-.1-.4-.3-.6-.4-.2-.1-.6.1-.8.1l-.3-1.4c.1 0 .1 0 .2-.1 2.5-.7 4.1-1.9 5.7-3.1.9 1.9 1.8 3.6 2.2 5.5-.3-1.9-.9-3.9-1.7-5.8 1.6-1.2 2.7-2.5 3.2-3.8.9 1.4 1.5 2.9 1.9 4.4-.4-1.6-1-3.1-1.8-4.5.1-.2.1-.4.2-.5-.1.2-.1.3-.2.5-1.2-2.2-2.9-4.1-4.9-5.7.2-.6.2-1.2 0-1.8 2 1.2 3.7 2.9 5.2 5.1l-.1-.1c-2-3.4-4.9-5.9-9.3-7.1l-.5-.3-2-.4c-.1-.2-.5-.5-.6-.5 1-.1 2.1-.1 3.1.2 6.9 2.4 11.8 9 11.8 16.7 0 3.6-1.6 7.9-4 11.2.2-.7.2-1.6.3-1.9zM27 50.1c1.8-.3 3.9-1.5 5.6-3 0 .1-.1.1-.1.2-1 3-4.6 3.4-5.5 2.8zm2 .7c1.3 0 2.9-.5 4.3-2.5-1 3.5-3.6 2.7-4.3 2.5zm9.4-.3c-.7-.5-.7-1.8-.2-2.3 0-.5.3-.6.2.4-.2 1.8 1.2 1.9 1.7 2.1.5.2-1 .2-1.7-.2zm2.9-1.1c-.1-.2-.1-.5.4-.9 2.2-1.9-.2-1.7.8-2.5-.2.5 3.4.8-.6 2.7-.1.2-.4.4-.6.7zm3.5.8c0 .1-.1-.1-.1-.1-.1-.2-.3-.1-.3 0 .3.3.2.7 0 .4-.1-.1-.2-.1-.3-.1.2.2.2.5-.1.8-.2.2-.6.3-.6.2 0-.2.2 0 .3-.2.1-.1.1-.4-.2-.6-.3-.2-.8-.1-.6.2.1.2.3.3-.1.3-.1 0-.3 0-.5-.1s-.5-.2-.5-.4.2.1.4 0c.3 0 .5-.8 1.2-.7.1 0 .2 0 .3-.1 0-.1 0-.2.1-.2h.3c.2 0 .2-.1.2-.2.1-.1.2-.1.3 0 .2.3.3.7.2.8zm.3-1.4c.4 0 .5.4.3.7-.2.2-.1-.1-.2-.3 0-.1-.2-.2-.4-.2-.1 0-.2-.2-.1-.2h.4zm11.8-9.2s.2.7 1.2.9c1 .2 2.2.7 2.4 1.6.1.4 2.7.4 2.1 2.2 0 0-1.3 0-2.9-.3-.2 0 .7 0 .3.3-.6.4-3.8.5-3.1-.3.2-.2.8-.3.8-.4 0 0-.6-.1-1.2.1-.5.1-.8.1-1.1 0-.4-.2-.6-.5.3-.7 1-.2.4-.2-.5-.2 0 0-1.6 0-1.5-.3 0-.4.7-.3 1.7-.6.9-.2 0-.1-.6-.2 0 0-1.4 0-1.6-.3-.2-.3.6-.4.3-.6-.5.3-1.7.2-1.4.7.1.2.9.4 1.2.5-1.1.3-.8.9-.3 1.3.2.1.4.2.5.3-.6.4-1.5.5-1.7.4-.2-.3.5-.4.4-.6-4.1.6-.6-.7-.6-.7 0-.4-3 .6-2.8-.1.5-.3 1.1-.3 1.7-.5-.2-.3-2.3.2-2.6-.2-.3-.3.7-.2.9-.4-.1-.3-2.6-.5-3.1-.3-.2-.3-1.4-1-1.9-.9-.2-.7-1.1-1.1-1.5-1.3-.1-.4-.5-.8-.7-1.1-.2-.2-.4-.3-.7-.4 0-.2-.4-.9-.6-1.2-.2-.4-.5-.4-.7-.6 0-.3-.1-.6-.4-1-.2-.3-.4-.5-.6-.6 0 0-.1-.6-.4-.8-1.4-2.5-7.1-2.3-14-2.1-4.5.1-9.6.2-14.5-.6 2.6 2.5 15.1 1.8 20.9 2.6-1.2.6-3.1.3-5.5.5-.4.5 3.8 1.2 7.7 1.5-1.3.2-2.9.4-4.3.7-.9.2 4.8 1 7.2 1.1-2.3.5-5 .5-4.6 1 1.1.5 4.3.4 6.4.5-2.5 1-4.7.3-4.6.7.4.1 1.4.4 2.7.5 1.1 0 2.8-.1 3.4.1.2.2-1 .2-1.9.3-2.2.4-3 0-2.4.4.4.2 2.2.3 2.8.3 1.3 0 2.8.1 3 .5-.7 0-1.3-.1-2.1.1-1.8.2-2.7-.1-2.3.2.7.4 2.1.4 2.8.4 2 .2 2.5.4 2.8.7h-.5c-1.4-.2-3-.1-4.4-.2-.3.4 1.5.4 1.7.9-1.5.4-3.1.7-4.7.7-.3 0-.9-.2-.8 0 .1.2.7.2 1 .3 1.2.3 1.9.1 2.7.1.4.7-5.8.4-5.2 1 1-.2 2.3.2 3.1.1-.2.1.5.3-1.7.6-1.8.6-4.6 4.1-8 3.3-.8-.3-.9-.6-.9-.6 2.6.7 7.4-2.8 7.4-2.8-1.2-.5-6.1 2.9-8.2 2.2-.5-.3-.5-.3-.5-.5 2.9-.5 7-2.9 7-2.9-3.6.4-6.3 2.2-8.5 2.1-.4 0-.5 0-.7-.4 0 0 5.2-2.6 11.9-3.3-.9-.2-2.1-1.1-2.2-1.8-1.2-.2-2.1-1-2.2-1.6-1.9 0-2.6-.6-3.7-2.2-3.6 0-4.3-2-4.3-2-6.7 0-7.2-3.2-7.2-3.2-4.5-.2-6.4-3.5-6.4-3.5 5.5 2 26.2-.6 30.9 1.5 4.1 1.9 4.8 10.5 11.4 9.4-.7-.2-1.4-.4-2.1-.8.4-.2 1.5-.7 2.1-1.1 3-1.9 4.7-4.5 7.6-7.7 2.3-3 14.3-.8 17.4-1.6-.2 1.1-1.6 1.9-4.5 2.4-1.2.2-.3 1.4-2.6 1.9-1.6.4-1.7 1.6-5.8 1.8-.6 0-1.4 1.5-4.8 2.2-.3.1-.6.1-.9.2-.7-.2-1-.3-1.2-.5.9 0 1.6.1 1.8-.2-.3 0-1.2-.2-1.1-.4 1.4 0 2.9-.1 2.7-.3-.9 0-1.3-.3-1.6-.6 1.2.1 2.9.1 3.4-.3.1-.2-1.8.1-2.8-.7 1.1 0 7.5.1 7.1-.7-1.4.3-4.6-.1-6.2-.3.7-.1 1.7-.3 2.6-.3 2.9-.1 7.4-.2 7-1.2-2.8.6-6.1.1-8 .1.1 0 .1-.1.2-.1.8-.6 4.9-.6 6.1-.8 1-.1 6.3-.4 6.5-1.1-.7.4-3.7.1-6.4.2-2.8-.1-5.9-.2-7.4 1.1-.4.3-.9.8-1.3 1.2-.2.3-1.1 1.4-1.3 1.6-.5.7-2.9 3.5-4.8 4.6-.5.3-1 .2-1.1.4h.3c2.2.3 4.4.7 5.5 1.5-.2-.3-.1-.6.3-.8 0 .2.7 1.1 1.5 1.1-.5-1 0-1.1 0-1.1z"/><path class="st0" d="M31 41.5c.5.6 1.7 1.1 4.1.5 1 .1-.7-.8-1.1-.8-2.1.7-3.2-.2-3 .3zM57 41.9c.8.2 1 1.8 2.5.7.8-.7-4.3-1.3-2.5-.7zM35.1 42.5c-1.4.5-2.7.1-2.5.2.4.6 2.2.8 3.7.4.8 0 0-.3-.2-.3-.7 0-.7-.4-1-.3zM22.9 36c-.5 0-1.7-.4-1.4-.1.6.8 1.9 1.8 8.5 1.3 0-.1-.5-.2-1.1-.4-2.2-.2-.9-.6-2.5-.7-1 0-1.8.2-3.5-.1zM26.8 38.1c-1-.1-1.3-.3-1.3-.2.7 1.6 5 1.5 6.6 1.1 0-.1-.5-.2-.8-.3-1.9-.3-.7-.5-1.7-.6-1-.1-2 .1-2.8 0z"/></svg>
